<svg xmlns="http://www.w3.org/2000/svg" width="760" height="164" viewBox="0 0 760 164" role="img" aria-labelledby="title desc">
  <title id="title">BotPanel</title><desc id="desc">Telegram bot workspace built for Cloudflare Workers</desc>
  <defs><linearGradient id="bg" x2="1" y2="1"><stop stop-color="#0c1c32"/><stop offset="1" stop-color="#11182c"/></linearGradient><linearGradient id="accent" x2="1" y2="1"><stop stop-color="#38bdf8"/><stop offset="1" stop-color="#818cf8"/></linearGradient></defs>
  <rect x="1" y="1" width="758" height="162" rx="26" fill="url(#bg)" stroke="#243751"/>
  <circle cx="707" cy="-5" r="110" fill="none" stroke="#38bdf8" opacity=".13"/><circle cx="707" cy="-5" r="138" fill="none" stroke="#38bdf8" opacity=".06"/>
  <rect x="32" y="31" width="102" height="102" rx="29" fill="url(#accent)"/>
  <path d="M59 56h25c13 0 21 6 21 16 0 7-4 12-11 14 8 2 13 7 13 15 0 11-9 18-23 18H59V56zm16 14v12h8c5 0 8-2 8-6s-3-6-8-6h-8zm0 25v11h9c5 0 8-2 8-6s-3-5-8-5h-9z" fill="#0b1b30" transform="translate(0,-5)"/>
  <text x="164" y="88" fill="#eaf4ff" font-size="51" font-weight="750" font-family="Arial,Helvetica,sans-serif" letter-spacing="-1.6">BotPanel</text>
  <text x="167" y="118" fill="#8da6c3" font-size="13" font-family="Arial,Helvetica,sans-serif" letter-spacing="2.8">TELEGRAM BOT WORKSPACE</text>
  <rect x="545" y="61" width="174" height="40" rx="12" fill="#0c273d" stroke="#24445c"/>
  <text x="632" y="86" text-anchor="middle" fill="#7dd3fc" font-size="13" font-family="Arial,Helvetica,sans-serif" font-weight="600">CLOUDFLARE NATIVE</text>
</svg>
